<svg xmlns="http://www.w3.org/2000/svg" viewBox="0 0 45 45" enable-background="new 0 0 45 45"><g fill="#fff"><path d="m35.1 28.1c-.9-.9-2-1.4-3.1-1.4-1.1 0-2.2.5-3.1 1.4l-2.3 2.3c-.3.3-.8.4-1.2.2-.3-.2-.6-.3-.9-.5-2.7-1.7-5.2-4-7.5-6.9-.9-1.2-1.6-2.2-2.1-3.2-.2-.4-.1-.9.2-1.3.5-.5 1-1 1.6-1.5.3-.3.5-.5.8-.8 1.9-1.9 1.9-4.4 0-6.3l-2.5-2.5c-.3-.3-.6-.6-.9-.9-.5-.6-1.1-1.2-1.7-1.7-.9-.9-1.9-1.3-3.1-1.3s-2.4.5-3.3 1.4c0 0 0 0 0 0l-3.1 3.1c-1.2 1.2-1.8 2.6-2 4.3-.2 2.7.6 5.2 1.2 6.8 1.5 4 3.7 7.7 7 11.7 4 4.8 8.8 8.6 14.3 11.2 2.1 1 4.9 2.2 8 2.4.2 0 .4 0 .6 0 2.1 0 3.9-.8 5.3-2.3.5-.6 1-1.1 1.6-1.7.4-.4.8-.8 1.2-1.2.9-.9 1.4-2 1.4-3.2 0-1.1-.5-2.2-1.4-3.1l-5-5m3.2 9.6c0 0 0 0 0 0-.4.4-.7.7-1.1 1.1-.6.6-1.2 1.2-1.8 1.8-.9 1-2 1.5-3.4 1.5-.1 0-.3 0-.4 0-2.7-.2-5.2-1.2-7.1-2.1-5.2-2.5-9.7-6.1-13.5-10.6-3.1-3.8-5.2-7.2-6.6-11-.9-2.3-1.2-4.1-1-5.7.1-1.1.5-2 1.3-2.7l3.1-3.1c.4-.4.9-.6 1.4-.6.6 0 1 .3 1.3.6.6.5 1.1 1.1 1.6 1.6.3.3.6.6.9.9l1.7 1.7c1.2 1.2 1.2 3.2 0 4.4-.8.8-1.5 1.5-2.3 2.2-.8.8-.6 1.6-.5 2.1 0 0 0 .1 0 .1.6 1.6 1.6 3.1 3 4.8 2.5 3.1 5.2 5.5 8.1 7.4.4.2.8.4 1.1.6.3.2.6.3.9.5 0 0 .1 0 .1.1.3.2.6.2.9.2.8 0 1.2-.5 1.4-.6l3.1-3.1c.3-.3.8-.7 1.4-.7.6 0 1 .4 1.3.7l5 5c1.1 1 1.1 1.9.1 2.9"/><path d="m24.2 11.5c2.4.4 4.6 1.5 6.3 3.3s2.9 3.9 3.3 6.3c.1.6.6 1 1.2 1 .1 0 .1 0 .2 0 .7-.1 1.1-.7 1-1.4-.5-2.9-1.9-5.5-4-7.6s-4.7-3.5-7.6-4c-.7-.1-1.3.3-1.4 1-.1.7.4 1.3 1 1.4"/><path d="m44.1 20.3c-.8-4.8-3.1-9.1-6.5-12.6-3.5-3.4-7.8-5.7-12.6-6.5-.7-.1-1.3.3-1.4 1-.1.7.3 1.3 1 1.4 4.3.7 8.1 2.7 11.2 5.8 3.1 3.1 5.1 7 5.8 11.2.1.6.6 1 1.2 1 .1 0 .1 0 .2 0 .8 0 1.2-.6 1.1-1.3"/></g></svg>